<svg xmlns="http://www.w3.org/2000/svg" viewBox="0 0 910.19 2080.24"><defs><style>.cls-1,.cls-4{opacity:0.8;}.cls-2,.cls-4{fill:#1d1d1b;}.cls-3{fill:#1c2d31;}.cls-5{fill:#dfd9b4;}</style></defs><g id="Livello_2" data-name="Livello 2"><g id="sentiero"><g class="cls-1"><line class="cls-2" x1="910.19" y1="2080.24" x2="910.19" y2="2071.27"/><path class="cls-2" d="M700,2080.24c10.7-22.78-28.82-35-10.78-57.91s.45-38.48,0-58.5-21-22.88,51.93-98.66,70.41-82.92,45.75-124.39,57.19-86.71-15.73-137.38-53-93.06-127.25-98.53-107.23-31.46-149.12-45.51-51-17.4-62.3-40.28-.19-20-13.82-37.23-29.26-27.82-7.81-40-70-28.91-32.17-31.1,43.25-66.84,54.33-63.55,39.89-17.22,82.21-21.82c79-8.58,60.51-13.23,101.52,0s74.34,14.3,101.51,0,55.25-92.37,46-112.38-1.63-16-10.21-28.51-84.7-106-97.21-78.79-82.22-8.07-100.45,3.73S423.7,962.26,433.71,957.62s-48.25-35-57.19-34.66-3.57-19-17.87-33.35-1.07-33.51-6.79-42.8,54-2.86,89.36-31.81,96.87-39,166.93-50.76,77.21-55.07,94.36-66.5,54.69-26.66,48.62-45.61,8.93-34.54,2.85-51.7-66.48-71.53-92.93-54.37-177.65,6.57-213.75,9.43-49-26.81-54-35.65-42.22,10.85-34.67-1.79,1.07-22.61-10.85-34-16.67-27.89-4.11-27.18,42.48-20.37,50.7-31.09S507,396.43,519.5,399.64s-7.86,1.79,52.9-8.58,11.8-20.8,28.6-31.16,39.32-31,35.74-39.61-4.29-33.35-27.16-40.31c-14.52-4.41-73.64-19-91.87-15.45S422.27,251.66,428,243.12s-15.33-27.56-23.57-33-6.41-15-19.2-20.48,8.5-7.35,13.28-31.84,85.28-14.61,118.17-9.66,27.38-21,41.47-38.31c22.18-27.26,21-27.26,11.44-44.78-11.24-20.58-15.73-.26-20-24.57S455.18,19.32,404.38,5H335.49c-30,2-62.73,6.5-89.8,15.88-63.44,22-151.26-6.32-202.71.77q4.41,1.63,9,3.37s220.7,39.3,221.16,46.82,60-10.6,73.38-5.6,26.23-1.78,29.32,13.36S402.5,88,394.87,91.76s-13.82,5.72-16.92,16-159.66,22.4-175.15,27.88,7.87,5.19.72,21.63-34,47-9.94,52.9S214,238.55,222.1,258.09s36-.71,67,5.25,76.25,11.91,83.4,19.06,29.12,14.77,38.39,17.16,15.7,18.35,2.6,24.54-20.73,4.85-30.27,18.39-31.11,10-39.5,21.41-3.15,28.83-38.66,35.5-94.62-10.21-181.84,11.94c-57.11,14.49-81,88.2-66.94,97.5s24.63,40.42,40,46.65c54.63,22.11,46.6,32.91,66.86,24.33s37.28,4.26,53.24,11.41,101.28-4.05,114.39,2.62,53.85,8.91,72,17.56,28.12,12.71,27.17,16.76,4.77,36.94,15.25,36,20,15.25,7.86,19.3-21,4.77-43.37,22.88-35.5,6.91-41.22,16-11,40.27-25.26,41.22-171.58,58.15-204,43.13-81.5-.75-94.37,22.6,6.67.41-21.45,43.78S62,961.62,87.7,960.19s97,29,95.32,35.67,56.24,17.4,81.26,23.12,128.45,27.88,132.73,40,89.84,14.3,87.94,32.89-47.9,57.9-84.36,52.42-67,12.87-78.64,28.84S207.33,1201,208.76,1209.62s-64.58-5-96.75,12.15-75.3,34.87-71.49,64.9-9.05,61-8.58,75.26S0,1435.05,37.66,1424.8s60.05,26,62.91,34.56,60.53,19.29,79.36,17.87,112.71,38.6,130.34,50.51,68.87,29.79,81.5,47.19,35.27,24.3,37.18,27.88,15.29,38.13-26,52.19-33.14,33.46-34.33,40.32-.72,38.66-30.74,54-22.4,52.49-22.4,59.87,4.05,72.69-12.87,83.89-94.13,86-123.44,110.56-94.84,33.84-85.31,50.76,1.19,25.86,1.19,25.86Zm-94.68-11.33c-8.58,11.44-20-22.5-20-22.5C601,2033.2,613.87,2057.48,605.29,2068.91ZM606,2016c-22.87-1.43,18.59-32.17,18.59-32.17C639.6,1980.27,628.88,2017.45,606,2016Zm32.13,53.28c-12.47,7.47-10.59-21.93-8.63-38.56,1-9,13.09-11.61,17.51-3.72C653.77,2039.06,649.93,2062.23,638.13,2069.3Zm-220.5-610.9c-17.52,6.79-31.46-24.71-31.46-24.71C395.11,1424.7,435.14,1451.61,417.63,1458.4Zm-38.25-66.13c-17.51-.71-10.72-18.23,19.66,0S379.38,1392.27,379.38,1392.27Zm-83.92-30.34c-2.42,11.48-27.14-16.46-27.14-16.46C263.06,1323.33,297.88,1350.45,295.46,1361.93Zm-27.68-54.37c7.42-5,21.17,18.58,12.23,19.66S267.78,1307.56,267.78,1307.56Zm33.32,87.21c-11.44,1.43-24.31-24.79-24.31-24.79C277.15,1362.7,312.54,1393.34,301.1,1394.77Zm-5.64-87.21c-22.44,0,15.46-31.46,15.46-31.46C342,1274.54,317.9,1307.56,295.46,1307.56Zm30.26-7.15c35.47-34,14.14,39.28-10.66,36.62S325.72,1300.41,325.72,1300.41ZM369,1426.59c11.8,31.09-62-50-62-50C299.4,1353.67,357.22,1395.49,369,1426.59Zm-23.09-64.7c-25.88.91-16.06-12.7-5.54-22.7a23.19,23.19,0,0,1,26.81-3.69C394,1349.65,381.27,1360.64,345.92,1361.89Zm9.58-85.84s40.32-37.12,50.69-27.11S372.33,1307.88,355.5,1276.05ZM458,1218.2c-17.16,12.15-30.67,26.45-35,11.43C423,1229.63,475.18,1206,458,1218.2ZM373.3,936.53s50.4,22.16,32.89,23.59S355.79,941.53,373.3,936.53Zm-15.18-14.75c-16.13-8.58-19.35-32.17-13.27-32.17h1.56S374.26,930.36,358.12,921.78ZM291.81,889.7c-21.09-20.37-1.43-22.52,5.72-33.6,0,0,18.23-15.73,9.29,2.86S312.9,910.08,291.81,889.7Zm17.75-30.57c6.54-8.41,15.62,24.5,3.55,23.78S308,861.82,308,861.82,303,867.54,309.56,859.13ZM318,843.26c3.57.71,26.09,10,27.88,25.74S303.48,840.36,318,843.26Zm4.37,61.47c-7.51,0,0-21.81,0-21.81C332,884,329.87,904.73,322.36,904.73Zm25.92,23.58c-3.21,8.57-35.07-3.79-35.74-15.37C311.47,894.35,351.5,919.73,348.28,928.31Zm6.08-91.51c-10.72-.72.71-13.58,12.51-15S354.36,836.8,354.36,836.8Zm27.88-294.18c-17.16,10-32.15-5-32.15-5C335.09,522.6,399.4,532.61,382.24,542.62ZM331.48,529c-3.57-.1-36.1-13.23-16.8-20.73S344,529.4,331.48,529Zm-36,1.43c-28.51-4.29-26.89-19.66-26.89-19.66C264,500.41,324,534.76,295.46,530.47ZM262.14,484c-.43-4.1,1.1-10,4.29-10.72,6.91-1.59,20.74,21.26,17.15,25C280.7,501.32,263.34,495.45,262.14,484Zm47.18-37.89s9.29-5,15.34-6.43-4.62,18.58-21.11,25.73S299.31,454,309.32,446.11Zm10.37,40c-14.3,5.36-8.77-5.71-8.77-5.71S334,480.78,319.69,486.14Zm21.83-46.54s11.36-18.51,25-17.8S348.7,461,341.52,439.6Zm66.59-198c-12.64,5.36-35.16-5.36-22.3-8.94C385.81,232.71,420.75,236.29,408.11,241.65ZM381.91,223c-13.94,1.79-16.45-12.51-16.45-12.51h1.65C371.61,208,395.85,221.17,381.91,223ZM420.13,96.55s3.57,2.48,4.69,5.88S399,113,392.61,108.32,420.13,96.55,420.13,96.55ZM406.19,71.86c7.51-.35,22.88,13.23,17.51,15s-24.3-1.08-24.3-9.65C399.4,77.23,398.68,72.22,406.19,71.86Zm10.82,222C390.17,292.54,391.8,281,391.8,281,389.61,275.42,443.84,295.14,417,293.84Zm27.6,29.76c2.15-13.84,8.58,3.81,11.68,8.81s-11.2,10-8.32,4.53S444.61,323.6,444.61,323.6Zm6.9,19.74.18-.1-.18.1c-.93.55-4.85,2.94,3.26-.46,9.07-3.82-15.43,21.95-29.8,22.19S436.22,352.32,451.51,343.34Zm-21.45-14.47c-3.89,0,5.32-15.73-6.12-28.6,0,0,.72-8.58,10.67,0S434,328.87,430.06,328.87ZM417,340.58c26.9-9-3.31,27.61-10.82,17.56S417,340.58,417,340.58Zm-31.83,17.56c9.36,5.67-6.51,18.63-18.69,17.2S385.18,358.14,385.18,358.14ZM430,608.39c-12.31,5-28.44-5.72-28.44-5.72C405.12,597,442.29,603.39,430,608.39Zm21.25,18.23c2.5-3.57,28.95,8.22,28.62,20S434.17,651,451.23,626.62Zm28.95,8.22c-3.2-5.08,17.52-8.58,26.81,4.29S491.6,653,480.18,634.84Zm-.33,50c-10.34,1.43,18-28.73,23.21-24.66C508.06,664.15,490.19,683.45,479.85,684.88Zm0-66.12c-6.76,2.86-17.5-1.75-20.4-5C453.73,607.32,486.61,615.9,479.85,618.76Zm-16.47,41.1c23.23,13.59,8.94.36,20.73,0s1.43,11.08-7.86,17.52S447.09,650.34,463.38,659.86Zm-4.6,29.31s9.25-.71,14.5,4.29-11.69,12.87-30.76,12.87S458.78,689.17,458.78,689.17Zm-33.65,28.6a104,104,0,0,1,17.39-2.86c9.51-.71-11.24,20-36.33,17.16S425.13,717.77,425.13,717.77ZM403,1558.48c19.32,1.43,39.3,27.17,34.2,35S403,1558.48,403,1558.48ZM441,1655h4.17c4.17,0,20.73,35-4.17,35S441,1655,441,1655Zm34.2-33.6c-20.74,0-15.73-25-15.73-25C470.17,1561.34,495.91,1621.4,475.18,1621.4Zm18.58,0c9.3,0,12.87,4.28,12.87,4.28s19.3,57.2-12.87,69.35S484.47,1621.4,493.76,1621.4Zm-62.91,144.4c-29.31,9.3,28.07-34.31,28.07-34.31C460.53,1735.06,460.16,1756.51,430.85,1765.8Zm5-57.9c-9.3,11.44-35.75-21.45-35.75-21.45C403,1667.86,445.15,1696.46,435.86,1707.9Zm-35.75,14.3c19.3-18.59,21.45,65.77,0,59.33S400.11,1722.2,400.11,1722.2Zm-37.17,74.34c19.3,0,21.44,27.17-7.44,37.18S362.94,1796.54,362.94,1796.54Zm109-228c-128.68-76.14-461.82-140.12-306-284.53,50.16-46.47,127.38-60.73,194.45-81.5,94.38-29.22,173.14-59.24,167.29-104.37-7.69-59.36-319-124.6-395.34-200.89-13.58-13.58-8.9-27.49-5.74-34,25.05-51.76,155.16-53.91,264.56-107.57C532.26,686.42,598,620.49,414.52,594.8,90.31,549.41,55.67,461.56,234.93,422.87c182.72-39.43,266.31-70.23,247.71-102.94-9.17-16.13-77.12-41.82-145.82-66.34-106.84-38.14-113.66-65-83.95-94.41s292-43,178.48-88.21c-67-26.71-196.86-29.4-196.86-29.4S477.7,30.76,525.58,78.05s-299.32,73.4-230.1,129.11c7.85,6.32,51,28.9,110.71,47.35C458.1,270.56,525,280.87,560.56,307.42c89.83,67.05-274.51,84-321.7,177.29-24.85,49.14,70.72,67.47,204.46,88.65,48.61,7.69,122.61,1.26,177.3,27.16,27.16,12.87,33.6,50.76,4.29,71.49-74.31,52.56-199.57,105.21-315.63,165.2C182,903,328.44,946.5,594.88,1054.71c300.64,122.1-330.42,118-354.59,280.72-13.89,93.52,271,141.21,424.65,271.66,92.22,78.28-108.31,460.75-108.31,460.75l-369.95,1.07C216.72,1926.53,699.73,1703.28,471.92,1568.49ZM457.39,306.4c3.58-1.19,16.8,17.4,16.8,17.4,7.79,19.06-1.43,4.88-4.92,9.88S453.82,307.59,457.39,306.4ZM435.5,82.59s7.86,1.43,8.94,4.79-9.66,10.93-13.94,8.79S435.5,82.59,435.5,82.59Zm-96.87,118c-7.52-5-2.44-14,2.5-19.45,9.3-10.16,13.58,4.83,10.37,8.41S346.14,205.55,338.63,200.54Zm-18,15c-5.72-6.79-31.94-16.65-23.95-29,5.84-9,19.78-1.43,22.64,7.51s14.53,19.3,18.82,25.74S326.36,222.35,320.64,215.56Zm41,11.79c-7.87-1.18-11-12.22-12.83-23.57C345.71,184.69,369.47,228.53,361.6,227.35Zm-2.55-58.46c-11.08,3.93-35.75,15.55-40.39,11.26s9.2-10.17,18.83-14.78c.31-.15.61-.28.93-.4,1.55-.6,7-2.73,16-6.62C365.13,153.7,370.13,165,359.05,168.89Z"/></g><g class="cls-1"><line class="cls-2" x1="893.61" y1="2079.69" x2="893.61" y2="2070.72"/><path class="cls-2" d="M683.4,2079.69c10.69-22.77-28.83-35-10.79-57.9s.46-38.49,0-58.5-21-22.88,51.93-98.66,70.42-82.93,45.75-124.39,57.19-86.71-15.73-137.39-53-93-127.25-98.53-107.23-31.45-149.12-45.51-51.05-17.4-62.3-40.27-.19-20-13.82-37.24-29.26-27.82-7.81-40-70-28.92-32.17-31.1,43.25-66.84,54.33-63.55,39.89-17.23,82.21-21.82c79-8.58,60.51-13.23,101.52,0s74.35,14.29,101.51,0,55.25-92.37,46-112.39-1.63-16-10.21-28.5-84.71-106-97.22-78.79-82.22-8.07-100.45,3.72-132.61-47.18-122.61-51.83-48.25-35-57.19-34.65-3.57-19-17.87-33.36-1.07-33.5-6.79-42.8,54-2.86,89.36-31.81,96.87-39,166.93-50.76,77.21-55.06,94.36-66.5,54.69-26.66,48.62-45.6,8.93-34.55,2.86-51.71-66.49-71.52-92.94-54.36-177.65,6.57-213.75,9.42-49-26.8-54-35.65-42.22,10.85-34.67-1.79,1.07-22.61-10.85-34-16.67-27.9-4.11-27.18,42.48-20.38,50.71-31.1,112.6-29.31,125.1-26.09-7.86,1.79,52.9-8.58,11.8-20.8,28.6-31.17,39.32-31,35.74-39.61-4.29-33.34-27.16-40.3c-14.51-4.42-73.64-19-91.87-15.46s-95.43-12.87-89.75-21.4-15.33-27.57-23.57-33-6.42-15-19.21-20.47,8.5-7.35,13.28-31.85,85.28-14.61,118.17-9.65,27.38-21,41.48-38.32C563.7,82,562.54,82,553,64.53,541.72,44,537.24,64.27,533,40S438.6,18.77,387.81,4.48H318.92c-30,2-62.74,6.49-89.81,15.88-63.44,22-151.26-6.33-202.7.76q4.39,1.64,9,3.37S256.08,63.8,256.54,71.31s60-10.6,73.38-5.59,26.23-1.78,29.33,13.36,26.67,8.32,19,12.14-13.82,5.72-16.92,16-159.66,22.4-175.15,27.88,7.87,5.2.72,21.64-34,47-9.93,52.89,20.41,28.42,28.52,48,36-.72,67,5.24,76.25,11.92,83.4,19.07S385,296.63,394.28,299s15.71,18.35,2.6,24.55S376.15,328.4,366.62,342s-31.12,10-39.51,21.4-3.15,28.84-38.66,35.51-94.62-10.21-181.84,11.93c-57.11,14.5-81,88.21-66.94,97.5s24.63,40.42,40,46.65c54.63,22.12,46.6,32.92,66.86,24.34s37.28,4.26,53.25,11.41,101.27-4.05,114.38,2.62,53.86,8.91,72,17.56,28.11,12.7,27.16,16.76,4.77,36.93,15.25,36,20,15.25,7.87,19.3-21,4.77-43.37,22.88-35.51,6.91-41.23,16S340.88,762,326.58,763,155,821.12,122.6,806.11s-81.5-.76-94.37,22.59,6.67.42-21.44,43.79,38.6,88.59,64.34,87.16,97,29,95.32,35.67,56.23,17.39,81.25,23.11,128.45,27.88,132.74,40,89.83,14.3,87.93,32.88-47.9,57.91-84.36,52.43-67,12.87-78.64,28.83-114.62,27.88-113.19,36.46-64.58-5-96.75,12.16-75.3,34.87-71.49,64.89-9,61-8.58,75.27-31.93,73.11,5.72,62.87,60.05,26,62.91,34.55,60.53,19.3,79.36,17.87,112.71,38.61,130.35,50.52,68.86,29.79,81.49,47.18,35.27,24.31,37.18,27.88,15.29,38.13-26,52.19-33.14,33.47-34.33,40.33-.72,38.66-30.74,54-22.4,52.49-22.4,59.88,4.05,72.68-12.87,83.88-94.13,86-123.44,110.57-94.84,33.84-85.31,50.76,1.19,25.85,1.19,25.85Zm-94.69-11.32c-8.58,11.43-20-22.5-20-22.5C584.42,2032.65,597.29,2056.94,588.71,2068.37Zm.71-52.9C566.55,2014,608,1983.3,608,1983.3,623,1979.73,612.3,2016.9,589.42,2015.47Zm32.13,53.28c-12.47,7.47-10.59-21.93-8.63-38.55,1.06-9,13.09-11.62,17.51-3.73C637.19,2038.52,633.35,2061.68,621.55,2068.75Zm-220.5-610.89c-17.52,6.79-31.46-24.72-31.46-24.72C378.53,1424.16,418.56,1451.06,401.05,1457.86Zm-38.25-66.13c-17.51-.72-10.72-18.23,19.66,0S362.8,1391.73,362.8,1391.73Zm-83.92-30.34c-2.42,11.48-27.14-16.47-27.14-16.47C246.48,1322.78,281.3,1349.91,278.88,1361.39ZM251.2,1307c7.42-5,21.17,18.59,12.23,19.66S251.2,1307,251.2,1307Zm33.32,87.22c-11.44,1.43-24.3-24.8-24.3-24.8C260.57,1362.15,296,1392.8,284.52,1394.23ZM278.88,1307c-22.43,0,15.46-31.45,15.46-31.45C325.42,1274,301.32,1307,278.88,1307Zm30.26-7.15c35.47-34,14.15,39.28-10.66,36.62S309.14,1299.86,309.14,1299.86ZM352.44,1426c11.79,31.1-62-50-62-50C282.82,1353.12,340.64,1394.94,352.44,1426Zm-23.09-64.7c-25.89.92-16.07-12.7-5.55-22.69a23.17,23.17,0,0,1,26.81-3.69C377.39,1349.1,364.7,1360.1,329.35,1361.34Zm9.58-85.84s40.32-37.12,50.68-27.11S355.75,1307.34,338.93,1275.5Zm102.51-57.85c-17.16,12.15-30.67,26.45-35,11.44C406.41,1229.09,458.6,1205.5,441.44,1217.65ZM356.73,936s50.4,22.16,32.88,23.59S339.21,941,356.73,936Zm-15.18-14.75c-16.14-8.58-19.36-32.17-13.28-32.17h1.56S357.68,929.81,341.55,921.23Zm-66.32-32.07c-21.09-20.38-1.43-22.52,5.72-33.6,0,0,18.23-15.73,9.29,2.86S296.32,909.53,275.23,889.16ZM293,858.58c6.54-8.41,15.62,24.5,3.55,23.79s-5.09-21.09-5.09-21.09S286.44,867,293,858.58Zm8.43-15.86c3.58.71,26.1,10,27.88,25.73S286.9,839.81,301.41,842.72Zm4.37,61.46c-7.5,0,0-21.8,0-21.8C315.43,883.45,313.29,904.18,305.78,904.18Zm25.92,23.58c-3.21,8.58-35.07-3.79-35.74-15.37C294.89,893.8,334.92,919.18,331.7,927.76Zm6.08-91.5c-10.72-.72.72-13.59,12.51-15S337.78,836.26,337.78,836.26Zm27.88-294.18c-17.16,10-32.15-5-32.15-5C318.51,522.06,382.82,532.07,365.66,542.08ZM314.9,528.49c-3.57-.1-36.1-13.22-16.8-20.73S327.42,528.85,314.9,528.49Zm-36,1.43C250.37,525.63,252,510.26,252,510.26,247.38,499.86,307.4,534.21,278.88,529.92Zm-33.32-46.46c-.43-4.11,1.1-10,4.29-10.73,6.92-1.59,20.74,21.26,17.16,25C264.13,500.77,246.76,494.9,245.56,483.46Zm47.18-37.89s9.3-5,15.35-6.44-4.62,18.59-21.12,25.74S282.73,453.43,292.74,445.57Zm10.37,40c-14.3,5.35-8.77-5.72-8.77-5.72S317.41,480.24,303.11,485.6Zm21.83-46.54s11.36-18.52,25-17.8S332.12,460.43,324.94,439.06Zm66.59-197.95c-12.64,5.36-35.16-5.37-22.29-8.94C369.24,232.17,404.17,235.74,391.53,241.11Zm-26.19-18.69c-13.94,1.78-16.46-12.51-16.46-12.51h1.65C355,207.4,379.28,220.63,365.34,222.42ZM403.55,96s3.58,2.49,4.69,5.89-25.78,10.54-32.21,5.89S403.55,96,403.55,96ZM389.61,71.32c7.51-.36,22.88,13.22,17.52,15s-24.31-1.07-24.31-9.65C382.82,76.68,382.1,71.68,389.61,71.32Zm10.82,222c-26.84-1.3-25.21-12.86-25.21-12.86C373,274.87,427.26,294.59,400.43,293.29ZM428,323.05c2.15-13.83,8.57,3.81,11.67,8.82s-11.2,10-8.32,4.53S428,323.05,428,323.05Zm6.89,19.75.18-.11-.18.11c-.92.55-4.85,2.94,3.26-.47,9.07-3.81-15.43,22-29.8,22.19S419.65,351.77,434.93,342.8Zm-21.45-14.48c-3.89,0,5.32-15.72-6.12-28.59,0,0,.72-8.58,10.67,0S417.37,328.32,413.48,328.32ZM400.43,340c26.9-9-3.31,27.6-10.82,17.55S400.43,340,400.43,340ZM368.6,357.59c9.37,5.68-6.51,18.63-18.69,17.2S368.6,357.59,368.6,357.59Zm44.8,250.26c-12.31,5-28.44-5.72-28.44-5.72C388.54,596.41,425.71,602.84,413.4,607.85Zm21.25,18.23c2.5-3.58,29,8.22,28.62,20S417.59,650.44,434.65,626.08Zm29,8.22c-3.2-5.08,17.52-8.58,26.81,4.29S475,652.42,463.6,634.3Zm-.33,50c-10.34,1.43,18-28.74,23.21-24.66C491.48,663.61,473.61,682.91,463.27,684.34Zm0-66.13c-6.76,2.86-17.5-1.74-20.4-5C437.15,606.77,470,615.35,463.27,618.21ZM446.8,659.32c23.24,13.58,8.94.36,20.73,0s1.43,11.08-7.86,17.51S430.51,649.79,446.8,659.32Zm-4.6,29.31s9.25-.72,14.5,4.29S445,705.79,425.94,705.79,442.2,688.63,442.2,688.63Zm-33.64,28.6a102.52,102.52,0,0,1,17.38-2.86c9.52-.72-11.24,20-36.33,17.15S408.56,717.23,408.56,717.23Zm-22.15,840.71c19.33,1.43,39.3,27.17,34.2,35S386.41,1557.94,386.41,1557.94Zm38,96.51h4.17c4.18,0,20.73,35-4.17,35S424.4,1654.45,424.4,1654.45Zm34.2-33.6c-20.73,0-15.73-25-15.73-25C453.59,1560.8,479.33,1620.85,458.6,1620.85Zm18.59,0c9.29,0,12.86,4.29,12.86,4.29s19.31,57.19-12.86,69.35S467.89,1620.85,477.19,1620.85Zm-62.92,144.41c-29.31,9.29,28.07-34.32,28.07-34.32C444,1734.52,443.59,1756,414.27,1765.26Zm5-57.91c-9.29,11.44-35.75-21.44-35.75-21.44C386.39,1667.32,428.57,1695.91,419.28,1707.35Zm-35.75,14.3c19.31-18.59,21.45,65.77,0,59.34S383.53,1721.65,383.53,1721.65ZM346.36,1796c19.3,0,21.45,27.17-7.43,37.17S346.36,1796,346.36,1796Zm109-228.06c-128.68-76.13-461.82-140.12-306-284.52,50.15-46.48,127.37-60.73,194.45-81.5,94.37-29.23,173.13-59.24,167.28-104.38-7.69-59.36-319-124.59-395.33-200.88-13.59-13.58-8.9-27.5-5.75-34,25-51.77,155.16-53.91,264.57-107.57C515.68,685.88,581.41,620,397.94,594.26,73.73,548.86,39.09,461,218.35,422.33c182.72-39.44,266.31-70.24,247.71-102.95-9.17-16.13-77.12-41.82-145.81-66.34-106.85-38.13-113.67-65-84-94.4s292-43,178.48-88.21C347.73,43.72,217.91,41,217.91,41S461.12,30.22,509,77.51,209.69,150.9,278.9,206.62c7.85,6.32,51,28.9,110.71,47.35,51.91,16,118.83,26.36,154.38,52.9,89.82,67.06-274.52,84-321.71,177.29C197.43,533.3,293,551.64,426.74,572.81c48.61,7.7,122.61,1.26,177.3,27.17,27.16,12.87,33.6,50.75,4.29,71.49C534,724,408.76,776.68,292.7,836.67,165.45,902.44,311.86,946,578.3,1054.16c300.64,122.1-330.41,118-354.59,280.73-13.89,93.51,271,141.21,424.65,271.66,92.22,78.28-108.31,460.75-108.31,460.75l-369.95,1.07C200.14,1926,683.15,1702.73,455.34,1567.94ZM440.81,305.86c3.58-1.2,16.8,17.39,16.8,17.39,7.8,19.06-1.43,4.89-4.92,9.89S437.24,307.05,440.81,305.86ZM418.92,82s7.87,1.43,8.94,4.8-9.65,10.93-13.94,8.79S418.92,82,418.92,82ZM322.05,200c-7.51-5-2.44-14.05,2.51-19.45,9.29-10.17,13.58,4.83,10.36,8.4S329.56,205,322.05,200Zm-18,15c-5.72-6.79-31.94-16.65-23.95-28.95,5.84-9,19.78-1.43,22.64,7.51s14.54,19.3,18.83,25.73S309.78,221.8,304.06,215Zm41,11.8c-7.86-1.18-11-12.22-12.83-23.57C329.13,184.15,352.89,228,345,226.81Zm-2.55-58.46c-11.08,3.93-35.74,15.55-40.39,11.26s9.2-10.17,18.83-14.79c.31-.15.61-.28.93-.4,1.55-.59,7-2.73,16-6.61C348.55,153.16,353.55,164.41,342.47,168.35Z"/></g><line class="cls-3" x1="900.26" y1="2075.22" x2="900.26" y2="2066.25"/><path class="cls-3" d="M690.05,2075.22c10.7-22.78-28.83-35-10.79-57.91s.46-38.48,0-58.5-21-22.88,51.93-98.66,70.42-82.92,45.75-124.39,57.19-86.71-15.72-137.38-53.06-93.06-127.26-98.53-107.23-31.46-149.12-45.51-51-17.4-62.3-40.28-.18-20-13.81-37.23-29.27-27.83-7.82-40-70-28.92-32.17-31.1,43.25-66.84,54.33-63.55S463,1225,505.28,1220.38c79-8.58,60.51-13.23,101.52,0s74.35,14.3,101.51,0,55.25-92.37,46-112.38-1.63-16-10.21-28.51-84.71-106-97.22-78.79-82.22-8.07-100.45,3.73-132.61-47.19-122.6-51.83-48.26-35-57.2-34.66-3.57-19-17.87-33.35-1.07-33.51-6.79-42.8,54-2.86,89.36-31.82,96.87-39,166.93-50.75,77.21-55.07,94.37-66.51,54.69-26.66,48.61-45.6,8.93-34.55,2.86-51.7S677.57,523.88,651.12,541s-177.65,6.57-213.75,9.43-49-26.81-54-35.65-42.22,10.84-34.67-1.8,1.07-22.6-10.85-34-16.67-27.89-4.11-27.18,42.49-20.37,50.71-31.1,112.6-29.31,125.1-26.09-7.86,1.79,52.91-8.58,11.79-20.8,28.59-31.16,39.32-31,35.75-39.61-4.29-33.35-27.17-40.31c-14.51-4.41-73.63-19-91.86-15.45S412.35,246.64,418,238.1s-15.33-27.56-23.57-33-6.42-15-19.21-20.48,8.5-7.35,13.28-31.85,85.29-14.6,118.17-9.65,27.38-21,41.48-38.31c22.17-27.26,21-27.26,11.44-44.78-11.25-20.58-15.73-.26-20-24.57S445.25,14.3,394.46,0H325.57c-30,2-62.73,6.5-89.81,15.88-63.44,22-151.26-6.32-202.7.77q4.39,1.63,9,3.37s220.7,39.3,221.16,46.82,60-10.6,73.38-5.6S362.8,59.46,365.9,74.6s26.67,8.33,19,12.14-13.82,5.72-16.92,16-159.66,22.4-175.14,27.88,7.86,5.19.71,21.63-34,47-9.93,52.9,20.42,28.41,28.52,47.95,36-.71,67,5.24,76.25,11.92,83.4,19.07,29.13,14.77,38.4,17.16,15.7,18.35,2.59,24.54-20.73,4.85-30.26,18.39-31.12,10-39.51,21.41-3.15,28.83-38.65,35.5-94.63-10.21-181.85,11.94c-57.11,14.49-81,88.2-66.94,97.5s24.64,40.41,40,46.65C141,572.58,133,583.38,153.21,574.8s37.28,4.26,53.25,11.41,101.27-4.05,114.38,2.62,53.86,8.91,72,17.56S420.93,619.1,420,623.15s4.77,36.94,15.25,36,20,15.25,7.87,19.3-21,4.77-43.37,22.88-35.51,6.91-41.23,16-11,40.27-25.26,41.22-171.57,58.15-204,43.13-81.5-.75-94.37,22.6,6.68.41-21.44,43.78S52,956.6,77.78,955.17s97,29,95.32,35.67,56.23,17.4,81.26,23.12,128.44,27.88,132.73,40,89.84,14.3,87.93,32.89-47.9,57.9-84.36,52.42-67,12.87-78.64,28.84S197.4,1196,198.83,1204.6s-64.58-5-96.75,12.15-75.3,34.87-71.49,64.89-9,61-8.57,75.27-31.94,73.12,5.71,62.87,60.06,26,62.92,34.56,60.52,19.29,79.35,17.86,112.71,38.61,130.35,50.52,68.87,29.79,81.5,47.19,35.26,24.3,37.17,27.88,15.29,38.12-25.95,52.18-33.15,33.47-34.34,40.33-.71,38.66-30.74,54-22.4,52.49-22.4,59.87,4.05,72.68-12.87,83.88-94.13,86-123.44,110.57S74.44,2032.44,84,2049.36s1.19,25.86,1.19,25.86Zm-94.69-11.33c-8.58,11.44-20-22.5-20-22.5C591.07,2028.17,603.94,2052.46,595.36,2063.89Zm.72-52.89c-22.88-1.43,18.58-32.17,18.58-32.17C629.68,1975.25,619,2012.43,596.08,2011Zm32.12,53.28c-12.47,7.47-10.59-21.93-8.63-38.56,1.06-9,13.09-11.61,17.52-3.73C643.84,2034,640,2057.21,628.2,2064.28Zm-220.5-610.9c-17.51,6.79-31.45-24.71-31.45-24.71C385.18,1419.68,425.22,1446.59,407.7,1453.38Zm-38.25-66.13c-17.51-.71-10.72-18.23,19.66,0S369.45,1387.25,369.45,1387.25Zm-83.91-30.34c-2.43,11.48-27.15-16.46-27.15-16.46C253.13,1318.31,288,1345.43,285.54,1356.91Zm-27.69-54.37c7.43-5,21.17,18.58,12.23,19.66S257.85,1302.54,257.85,1302.54Zm33.32,87.21c-11.44,1.43-24.3-24.79-24.3-24.79C267.22,1357.68,302.61,1388.32,291.17,1389.75Zm-5.63-87.21c-22.44,0,15.45-31.46,15.45-31.46C332.07,1269.52,308,1302.54,285.54,1302.54Zm30.25-7.15c35.47-34,14.15,39.27-10.66,36.62S315.79,1295.39,315.79,1295.39Zm43.3,126.18c11.79,31.09-62-50-62-50C289.47,1348.65,347.29,1390.47,359.09,1421.57ZM336,1356.87c-25.89.91-16.07-12.71-5.55-22.7a23.19,23.19,0,0,1,26.81-3.69C384,1344.63,371.35,1355.62,336,1356.87Zm9.58-85.84s40.32-37.12,50.68-27.12S362.41,1302.86,345.58,1271Zm102.51-57.86c-17.16,12.16-30.67,26.46-35,11.44C413.06,1224.61,465.25,1201,448.09,1213.17ZM363.38,931.51s50.4,22.16,32.88,23.59S345.86,936.51,363.38,931.51ZM348.2,916.76c-16.14-8.58-19.36-32.17-13.28-32.17h1.56S364.34,925.33,348.2,916.76Zm-66.32-32.08c-21.09-20.37-1.43-22.52,5.72-33.6,0,0,18.23-15.73,9.29,2.86S303,905.06,281.88,884.68Zm17.75-30.57c6.54-8.41,15.62,24.49,3.55,23.78s-5.09-21.09-5.09-21.09S293.09,862.52,299.63,854.11Zm8.43-15.87c3.58.71,26.1,10,27.88,25.73S293.55,835.34,308.06,838.24Zm4.37,61.47c-7.5,0,0-21.81,0-21.81C322.09,879,319.94,899.71,312.43,899.71Zm25.93,23.58c-3.22,8.57-35.08-3.8-35.75-15.38C301.54,889.33,341.57,914.71,338.36,923.29Zm6.07-91.51c-10.72-.72.72-13.58,12.51-15S344.43,831.78,344.43,831.78ZM372.31,537.6c-17.15,10-32.15-5-32.15-5C325.16,517.58,389.47,527.59,372.31,537.6ZM321.56,524c-3.58-.11-36.11-13.23-16.8-20.73S334.07,524.37,321.56,524Zm-36,1.43c-28.52-4.29-26.89-19.66-26.89-19.66C254,495.39,314.05,529.74,285.54,525.45ZM252.21,479c-.43-4.1,1.1-10,4.29-10.72,6.92-1.59,20.75,21.26,17.16,25C270.78,496.3,253.42,490.42,252.21,479Zm47.18-37.89s9.3-5,15.35-6.43-4.62,18.58-21.12,25.73S289.39,449,299.39,441.09Zm10.37,40c-14.3,5.36-8.77-5.72-8.77-5.72S324.06,475.76,309.76,481.12Zm21.83-46.54s11.36-18.51,25-17.8S338.77,456,331.59,434.58Zm66.59-197.95c-12.64,5.36-35.16-5.36-22.29-8.94C375.89,227.69,410.82,231.27,398.18,236.63ZM372,217.94c-13.94,1.79-16.46-12.51-16.46-12.51h1.65C361.68,202.93,385.93,216.15,372,217.94ZM410.2,91.53s3.58,2.48,4.69,5.88S389.11,108,382.68,103.3,410.2,91.53,410.2,91.53ZM396.26,66.84c7.51-.35,22.88,13.23,17.52,15s-24.31-1.08-24.31-9.66C389.47,72.2,388.76,67.2,396.26,66.84Zm10.82,222c-26.84-1.3-25.21-12.87-25.21-12.87C379.69,270.4,433.92,290.12,407.08,288.82Zm27.61,29.76c2.15-13.84,8.58,3.81,11.67,8.81s-11.2,10-8.32,4.53S434.69,318.58,434.69,318.58Zm6.89,19.74.18-.11-.18.11c-.92.55-4.85,2.94,3.26-.46,9.07-3.82-15.43,21.95-29.8,22.19S426.3,347.3,441.58,338.32Zm-21.45-14.47c-3.89,0,5.32-15.73-6.11-28.6,0,0,.71-8.58,10.66,0S424,323.85,420.13,323.85Zm-13.05,11.71c26.9-9-3.31,27.61-10.82,17.55S407.08,335.56,407.08,335.56Zm-31.83,17.55c9.37,5.68-6.51,18.63-18.69,17.2S375.25,353.11,375.25,353.11Zm44.81,250.26c-12.31,5-28.44-5.72-28.44-5.72C395.19,591.93,432.36,598.37,420.06,603.37ZM441.3,621.6c2.5-3.57,28.95,8.22,28.62,20S424.24,646,441.3,621.6Zm28.95,8.22c-3.2-5.08,17.52-8.58,26.81,4.29S481.68,648,470.25,629.82Zm-.33,50c-10.34,1.43,18-28.73,23.21-24.66C498.13,659.13,480.26,678.43,469.92,679.86Zm0-66.12c-6.76,2.86-17.5-1.75-20.4-5C443.8,602.3,476.69,610.88,469.92,613.74Zm-16.47,41.1c23.24,13.59,8.94.36,20.74,0s1.43,11.08-7.87,17.52S437.16,645.32,453.45,654.84Zm-4.6,29.31s9.25-.71,14.5,4.29-11.68,12.87-30.76,12.87S448.85,684.15,448.85,684.15Zm-33.64,28.6a102.52,102.52,0,0,1,17.38-2.86c9.52-.72-11.24,20-36.33,17.16S415.21,712.75,415.21,712.75Zm-22.14,840.71c19.32,1.43,39.29,27.17,34.2,35S393.07,1553.46,393.07,1553.46Zm38,96.51h4.17c4.18,0,20.74,35-4.17,35S431.05,1650,431.05,1650Zm34.2-33.6c-20.73,0-15.73-25-15.73-25C460.25,1556.32,486,1616.37,465.25,1616.37Zm18.59,0c9.29,0,12.87,4.29,12.87,4.29s19.3,57.2-12.87,69.35S474.54,1616.37,483.84,1616.37Zm-62.91,144.41c-29.31,9.3,28.06-34.31,28.06-34.31C450.61,1730,450.24,1751.49,420.93,1760.78Zm5-57.9c-9.29,11.43-35.74-21.45-35.74-21.45C393.05,1662.84,435.22,1691.44,425.93,1702.88Zm-35.74,14.29c19.3-18.58,21.44,65.77,0,59.34S390.19,1717.17,390.19,1717.17ZM353,1791.52c19.3,0,21.45,27.17-7.43,37.18S353,1791.52,353,1791.52Zm109-228C333.31,1487.33.17,1423.35,156,1278.94c50.15-46.47,127.37-60.73,194.45-81.5,94.37-29.22,173.13-59.24,167.28-104.37-7.69-59.36-319-124.6-395.33-200.89-13.59-13.58-8.9-27.49-5.74-34,25-51.77,155.15-53.91,264.56-107.57,141.09-69.19,206.82-135.12,23.35-160.81C80.39,544.39,45.74,456.54,225,417.85c182.72-39.44,266.32-70.23,247.72-102.94-9.18-16.13-77.13-41.83-145.82-66.34-106.85-38.14-113.67-65-84-94.41s292-43,178.48-88.21c-67-26.71-196.86-29.41-196.86-29.41S467.77,25.74,515.65,73s-299.31,73.4-230.1,129.11c7.85,6.32,51,28.9,110.71,47.35,51.91,16.05,118.83,26.36,154.38,52.9,89.82,67.06-274.52,84-321.7,177.3-24.86,49.14,70.71,67.47,204.46,88.65C482,576,556,569.6,610.69,595.5c27.17,12.87,33.6,50.76,4.29,71.49-74.31,52.56-199.57,105.21-315.63,165.2C172.1,898,318.51,941.48,585,1049.69c300.64,122.1-330.41,118-354.58,280.72-13.9,93.51,271,141.21,424.64,271.66,92.22,78.28-108.3,460.75-108.3,460.75l-370,1.07C206.79,1921.51,689.81,1698.26,462,1563.47ZM447.47,301.38c3.57-1.19,16.8,17.39,16.8,17.39,7.79,19.07-1.43,4.89-4.93,9.89S443.89,302.57,447.47,301.38ZM425.57,77.57s7.87,1.43,8.94,4.79-9.65,10.93-13.94,8.79S425.57,77.57,425.57,77.57Zm-96.87,118c-7.51-5-2.43-14.05,2.51-19.45,9.29-10.16,13.58,4.83,10.36,8.41S336.21,200.53,328.7,195.52Zm-18,15c-5.72-6.8-31.94-16.65-23.95-29,5.84-9,19.78-1.43,22.64,7.51s14.54,19.3,18.83,25.74S316.43,217.33,310.71,210.54Zm41,11.79c-7.86-1.18-11-12.22-12.82-23.57C335.78,179.67,359.54,223.51,351.67,222.33Zm-2.55-58.46c-11.08,3.93-35.74,15.55-40.39,11.26s9.2-10.17,18.84-14.79c.3-.14.6-.27.92-.39,1.55-.6,7-2.74,16-6.62C355.2,148.68,360.2,159.94,349.12,163.87Z"/><path class="cls-4" d="M234.54,36.54S364.36,39.24,431.4,66c113.49,45.21-148.77,58.81-178.48,88.21s-22.89,56.27,84,94.41c68.69,24.51,136.64,50.21,145.81,66.34,18.6,32.71-65,63.5-247.71,102.94C55.72,456.54,90.36,544.39,414.57,589.78,598,615.47,532.31,681.4,391.22,750.59c-109.41,53.66-239.52,55.8-264.57,107.57-3.15,6.53-7.84,20.44,5.75,34,76.28,76.29,387.64,141.53,395.33,200.89,5.85,45.13-72.91,75.15-167.28,104.37-67.08,20.77-144.3,35-194.45,81.5-155.85,144.41,177.29,208.39,306,284.53,227.82,134.79-255.2,358-285.24,500.42l370-1.07S757.21,1680.35,665,1602.07c-153.68-130.45-438.54-178.15-424.64-271.66,24.17-162.71,655.22-158.62,354.58-280.72C328.49,941.48,182.08,898,309.33,832.19,425.39,772.2,550.65,719.55,625,667c29.31-20.73,22.87-58.62-4.29-71.49C566,569.6,492,576,443.37,568.34c-133.74-21.18-229.31-39.51-204.45-88.65,47.18-93.3,411.52-110.24,321.7-177.3-35.55-26.54-102.47-36.85-154.38-52.9-59.7-18.45-102.86-41-110.71-47.35-69.21-55.71,278-81.82,230.1-129.11S234.54,36.54,234.54,36.54Z"/><path class="cls-4" d="M224.56,41.64S354.38,44.34,421.43,71c113.48,45.22-148.78,58.81-178.49,88.22s-22.89,56.27,84,94.4c68.69,24.52,136.64,50.21,145.81,66.34,18.61,32.71-65,63.51-247.71,102.94C45.74,461.64,80.38,549.48,404.59,594.88c183.47,25.69,117.74,91.61-23.35,160.81-109.41,53.65-239.52,55.8-264.56,107.57-3.16,6.52-7.85,20.43,5.74,34,76.29,76.29,387.64,141.52,395.33,200.88,5.85,45.13-72.91,75.15-167.28,104.38-67.08,20.77-144.3,35-194.45,81.49C.17,1428.44,333.31,1492.43,462,1568.56c227.82,134.79-255.2,358-285.24,500.43l370-1.07S747.23,1685.45,655,1607.17C501.33,1476.72,216.47,1429,230.37,1335.51,254.54,1172.8,885.59,1176.88,585,1054.78,318.51,946.57,172.1,903.06,299.35,837.28,415.41,777.3,540.67,724.64,615,672.09c29.31-20.74,22.88-58.63-4.29-71.49C556,574.69,482,581.12,433.4,573.43c-133.75-21.17-229.32-39.51-204.46-88.65,47.18-93.29,411.52-110.23,321.7-177.29-35.55-26.54-102.47-36.86-154.38-52.9-59.7-18.45-102.86-41-110.71-47.36-69.21-55.71,278-81.81,230.1-129.1S224.56,41.64,224.56,41.64Z"/><path class="cls-5" d="M228.34,32.24s129.82,2.7,196.86,29.41c113.48,45.21-148.78,58.81-178.49,88.21s-22.88,56.27,84,94.4c68.69,24.52,136.65,50.21,145.82,66.34,18.6,32.71-65,63.51-247.71,103C49.51,452.24,84.16,540.08,408.36,585.48,591.83,611.17,526.1,677.1,385,746.29,275.6,800,145.49,802.09,120.45,853.86c-3.16,6.52-7.84,20.44,5.74,34,76.29,76.29,387.64,141.53,395.34,200.88,5.85,45.14-72.92,75.15-167.29,104.38-67.07,20.77-144.29,35-194.45,81.5C3.94,1419.05,337.08,1483,465.77,1559.16c227.81,134.79-255.2,358-285.25,500.43l370-1.07S751,1676.05,658.79,1597.77c-153.69-130.45-438.54-178.15-424.65-271.66,24.17-162.71,655.23-158.62,354.59-280.73C322.28,937.17,175.87,893.66,303.12,827.89c116.06-60,241.33-112.65,315.63-165.2,29.31-20.73,22.88-58.62-4.29-71.49C559.78,565.3,485.78,571.73,437.17,564c-133.75-21.17-229.31-39.5-204.46-88.64,47.18-93.3,411.52-110.24,321.7-177.3-35.55-26.54-102.47-36.86-154.37-52.9-59.7-18.45-102.86-41-110.72-47.35-69.21-55.72,278-81.82,230.11-129.11S228.34,32.24,228.34,32.24Z"/></g></g></svg>